<svg width="1920" height="1080" viewBox="0 0 1920 1080" fill="none" xmlns="http://www.w3.org/2000/svg">
<g clip-path="url(#clip0_1_2)">
<path d="M1920 0H0V1080H1920V0Z" fill="#11183F"/>
<path d="M1871 -26L1966 21.5618V116.438L1871 164L1776 116.438V21.5618L1871 -26Z" fill="#BAC8FF"/>
<path d="M442 219L525 260.5V343.5L442 385L359 343.5V260.5L442 219Z" fill="#96ABFF"/>
<path d="M180 122L201 132.5V153.5L180 164L159 153.5V132.5L180 122Z" fill="#8CA4FF"/>
<path d="M180 184L201 194.5V215.5L180 226L159 215.5V194.5L180 184Z" fill="#6988FF"/>
<path d="M201 153L222 163.5V184.5L201 195L180 184.5V163.5L201 153Z" fill="#AFC0FF"/>
<path d="M1726.5 723L1897 808V978L1726.5 1063L1556 978V808L1726.5 723Z" fill="#95AAFF"/>
<path d="M180 723L245 755.5V820.5L180 853L115 820.5V755.5L180 723Z" fill="#BAC8FF"/>
<path d="M1009 164L1097 208V296L1009 340L921 296V208L1009 164Z" fill="#BAC8FF"/>
<path d="M1273 296L1361 340V428L1273 472L1185 428V340L1273 296Z" fill="#89A1FF"/>
<path d="M1097 296L1185 340V428L1097 472L1009 428V340L1097 296Z" fill="#A0B3FE"/>
<path d="M766.5 562L802 579.75V615.25L766.5 633L731 615.25V579.75L766.5 562Z" fill="#BAC8FF"/>
<path d="M801.5 615L837 632.75V668.25L801.5 686L766 668.25V632.75L801.5 615Z" fill="#88A0FF"/>
<path d="M1218 764L1273 791.5V846.5L1218 874L1163 846.5V791.5L1218 764Z" fill="#BAC8FF"/>
<path d="M712 879L767 906.5V961.5L712 989L657 961.5V906.5L712 879Z" fill="#BAC8FF"/>
</g>
<defs>
<clipPath id="clip0_1_2">
<rect width="1920" height="1080" fill="white"/>
</clipPath>
</defs>
</svg>
